<?xml version="1.0" standalone="no"?>
<!DOCTYPE svg PUBLIC "-//W3C//DTD SVG 20010904//EN"
 "http://www.w3.org/TR/2001/REC-SVG-20010904/DTD/svg10.dtd">
<svg version="1.0" xmlns="http://www.w3.org/2000/svg"
 width="1024.000000pt" height="1024.000000pt" viewBox="0 0 1024.000000 1024.000000"
 preserveAspectRatio="xMidYMid meet">

<g transform="translate(0.000000,1024.000000) scale(0.100000,-0.100000)"
fill="#000000" stroke="none">
<path d="M4846 7983 c-152 -20 -181 -31 -181 -66 0 -22 13 -39 65 -80 166
-135 263 -320 262 -506 0 -106 -13 -162 -59 -260 -29 -62 -36 -88 -36 -142 -1
-56 3 -73 25 -106 53 -80 161 -100 254 -49 29 15 110 82 180 148 71 66 205
181 298 255 189 153 243 214 270 313 22 79 15 145 -23 226 -66 139 -238 234
-483 269 -131 19 -427 18 -572 -2z"/>
<path d="M3930 7685 c-158 -31 -363 -148 -652 -372 -111 -86 -131 -114 -104
-141 14 -14 23 -13 103 11 150 46 222 58 388 64 191 7 271 -6 470 -74 198 -68
282 -61 362 31 41 46 57 97 50 166 -20 225 -314 376 -617 315z"/>
<path d="M6375 7646 c-20 -20 -25 -35 -25 -72 0 -79 43 -143 213 -315 84 -85
178 -185 209 -224 239 -297 320 -663 223 -999 -60 -206 -132 -332 -279 -484
-176 -182 -380 -268 -636 -266 -143 0 -244 22 -366 78 -191 89 -312 203 -550
518 -253 336 -432 523 -619 646 -266 176 -514 257 -821 269 -257 9 -462 -21
-682 -103 -302 -112 -472 -258 -603 -517 -61 -122 -67 -145 -47 -165 21 -21
46 -13 155 50 183 105 385 182 603 230 92 20 133 22 335 23 188 0 245 -3 315
-19 307 -67 540 -196 771 -426 141 -140 173 -178 396 -482 347 -473 512 -642
733 -753 279 -140 633 -139 914 2 264 133 482 370 641 698 153 315 232 576
256 847 18 217 -14 406 -100 583 -126 257 -393 526 -766 770 -214 140 -233
148 -270 111z"/>
<path d="M5925 6871 c-109 -27 -181 -67 -266 -151 -88 -87 -128 -161 -153
-282 -20 -95 -20 -153 -1 -241 42 -200 205 -370 410 -428 73 -21 237 -18 305
5 160 54 280 152 349 285 48 94 65 163 64 266 -1 159 -54 286 -168 400 -143
143 -339 196 -540 146z"/>
<path d="M7887 5837 c-9 -7 -25 -50 -37 -97 -86 -350 -258 -718 -469 -1001
-88 -118 -292 -320 -395 -392 -166 -116 -332 -189 -518 -228 -78 -16 -158 -23
-328 -29 -136 -4 -237 -12 -255 -19 -132 -53 -174 -156 -131 -317 9 -34 16
-84 16 -110 0 -110 -89 -218 -216 -264 -63 -23 -82 -25 -224 -24 -134 1 -168
5 -253 28 -208 56 -340 123 -692 351 -336 218 -487 297 -653 340 -89 24 -239
38 -325 31 -338 -28 -577 -179 -714 -452 -63 -126 -65 -162 -16 -242 127 -207
366 -474 613 -683 130 -111 460 -323 519 -335 44 -9 70 12 150 119 170 231
378 357 706 427 89 20 146 23 520 30 487 9 540 17 763 106 162 66 282 146 513
346 334 289 547 458 754 599 459 314 673 519 784 749 l36 75 0 235 c0 136 -6
273 -13 325 -14 98 -57 328 -73 387 -11 44 -38 63 -62 45z"/>
<path d="M3141 5800 c-164 -21 -358 -78 -521 -153 -134 -61 -379 -239 -409
-296 -5 -9 -12 -80 -16 -157 -7 -137 -6 -143 14 -163 27 -27 45 -22 121 29
182 123 515 249 770 290 243 39 532 15 737 -60 245 -90 443 -262 532 -462 37
-83 47 -126 66 -293 8 -77 25 -168 36 -202 80 -244 352 -425 576 -384 158 29
252 129 253 266 0 96 -29 145 -182 303 -132 137 -172 187 -389 477 -262 352
-436 509 -724 653 -214 106 -393 151 -635 157 -85 2 -188 0 -229 -5z"/>
<path d="M3248 4899 c-336 -32 -672 -166 -920 -366 -38 -30 -70 -64 -74 -78
-13 -52 68 -356 104 -388 34 -31 56 -20 148 74 207 212 431 331 709 374 107
17 247 17 470 0 61 -5 75 -3 110 17 83 49 107 133 62 218 -47 89 -135 132
-306 149 -115 12 -176 12 -303 0z"/>
<path d="M7644 3803 c-271 -197 -447 -336 -708 -558 -432 -367 -585 -474 -823
-570 -258 -105 -447 -135 -849 -135 -157 0 -328 -5 -382 -10 -131 -15 -270
-52 -355 -97 -137 -72 -230 -194 -184 -240 19 -19 170 -55 357 -85 198 -31
668 -33 855 -4 150 23 429 93 555 139 555 203 1054 590 1405 1093 105 150 265
419 294 496 8 21 7 31 -5 43 -9 8 -21 15 -29 15 -7 0 -66 -39 -131 -87z"/>
</g>
</svg>
